<svg width="81" height="83" viewBox="0 0 81 83" fill="none" xmlns="http://www.w3.org/2000/svg">
<path opacity="0.5" d="M80.6526 46.8166L27.6985 69.7685C27.4527 69.8661 27.1926 69.6667 27.2118 69.411L28.047 54.9998L54.8386 43.4869C55.0844 43.3894 55.1091 43.0606 54.8825 42.9025L30.047 24.9998L31.636 10.5265C31.6552 10.2708 31.9401 10.1414 32.1667 10.2995L80.6965 46.2322C80.9035 46.4062 80.8788 46.735 80.6526 46.8166Z" fill="#F75A68"/>
<path opacity="0.5" d="M20.142 24.2028L33.8511 18.2943C34.0972 18.1975 34.3567 18.3977 34.3367 18.6533L30.8493 63.4109C30.8292 63.6666 30.544 63.7951 30.3179 63.6362L17.785 54.2953L20.142 24.2028Z" fill="#F75A68"/>
<path d="M30.0472 25.0005L57.1306 42.8698L28.0472 55.0005L30.0472 25.0005Z" fill="#F75A68"/>
</svg>
